HIERARCHY
ROOT Hips
{
    OFFSET   0.000000   0.000000   0.000000
    CHANNELS 6 Xposition Yposition Zposition Zrotation Xrotation Yrotation
    JOINT Chest
    {
        OFFSET   0.000000   8.007230   0.000000
        CHANNELS 3 Zrotation Xrotation Yrotation
        JOINT Chest2
        {
            OFFSET   0.000000  22.077100   0.000000
            CHANNELS 3 Zrotation Xrotation Yrotation
            JOINT Neck
            {
                OFFSET   0.000000  23.254800  -0.000021
                CHANNELS 3 Zrotation Xrotation Yrotation
                JOINT Head
                {
                    OFFSET   0.000000  14.370000   1.956610
                    CHANNELS 3 Zrotation Xrotation Yrotation
                    End Site
                    {
                        OFFSET   0.000000  19.566000   0.000000
                    }
                }
            }
            JOINT LeftCollar
            {
                OFFSET   3.911900  19.017000  -0.467063
                CHANNELS 3 Zrotation Xrotation Yrotation
                JOINT LeftShoulder
                {
                    OFFSET  10.383700   0.000000   0.000000
                    CHANNELS 3 Zrotation Xrotation Yrotation
                    JOINT LeftElbow
                    {
                        OFFSET  26.662100   0.001529   0.000325
                        CHANNELS 3 Zrotation Xrotation Yrotation
                        JOINT LeftWrist
                        {
                            OFFSET  28.869000  -0.000011  -0.000096
                            CHANNELS 3 Zrotation Xrotation Yrotation
                            JOINT LeftFinger0
                            {
                                OFFSET   2.044650  -2.323460   3.252850
                                CHANNELS 3 Zrotation Xrotation Yrotation
                                JOINT LeftFinger01
                                {
                                    OFFSET   3.088130   0.000000   0.000000
                                    CHANNELS 3 Zrotation Xrotation Yrotation
                                    JOINT LeftFinger02
                                    {
                                        OFFSET   2.639460   0.000000   0.000000
                                        CHANNELS 3 Zrotation Xrotation Yrotation
                                        End Site
                                        {
                                            OFFSET   2.582190   0.000000   0.000000
                                        }
                                    }
                                }
                            }
                            JOINT LeftFinger1
                            {
                                OFFSET   8.364480   0.000000   3.252850
                                CHANNELS 3 Zrotation Xrotation Yrotation
                                JOINT LeftFinger11
                                {
                                    OFFSET   4.646930   0.000000   0.000000
                                    CHANNELS 3 Zrotation Xrotation Yrotation
                                    JOINT LeftFinger12
                                    {
                                        OFFSET   2.323460   0.000000   0.000000
                                        CHANNELS 3 Zrotation Xrotation Yrotation
                                        End Site
                                        {
                                            OFFSET   2.273050   0.000000   0.000000
                                        }
                                    }
                                }
                            }
                            JOINT LeftFinger2
                            {
                                OFFSET   8.364480   0.000016   1.078090
                                CHANNELS 3 Zrotation Xrotation Yrotation
                                JOINT LeftFinger21
                                {
                                    OFFSET   5.111620   0.000000   0.000000
                                    CHANNELS 3 Zrotation Xrotation Yrotation
                                    JOINT LeftFinger22
                                    {
                                        OFFSET   2.788160   0.000017   0.000000
                                        CHANNELS 3 Zrotation Xrotation Yrotation
                                        End Site
                                        {
                                            OFFSET   2.727660   0.000000   0.000000
                                        }
                                    }
                                }
                            }
                            JOINT LeftFinger3
                            {
                                OFFSET   7.899780   0.000015  -1.078090
                                CHANNELS 3 Zrotation Xrotation Yrotation
                                JOINT LeftFinger31
                                {
                                    OFFSET   4.646920   0.000000   0.000000
                                    CHANNELS 3 Zrotation Xrotation Yrotation
                                    JOINT LeftFinger32
                                    {
                                        OFFSET   2.323470   0.000000   0.000000
                                        CHANNELS 3 Zrotation Xrotation Yrotation
                                        End Site
                                        {
                                            OFFSET   2.273050   0.000000   0.000000
                                        }
                                    }
                                }
                            }
                            JOINT LeftFinger4
                            {
                                OFFSET   7.435090   0.000000  -3.252850
                                CHANNELS 3 Zrotation Xrotation Yrotation
                                JOINT LeftFinger41
                                {
                                    OFFSET   3.717550   0.000000   0.000000
                                    CHANNELS 3 Zrotation Xrotation Yrotation
                                    JOINT LeftFinger42
                                    {
                                        OFFSET   1.858760   0.000000   0.000000
                                        CHANNELS 3 Zrotation Xrotation Yrotation
                                        End Site
                                        {
                                            OFFSET   1.818440   0.000000   0.000000
                                        }
                                    }
                                }
                            }
                        }
                    }
                }
            }
            JOINT RightCollar
            {
                OFFSET  -3.911900  19.017000  -0.467062
                CHANNELS 3 Zrotation Xrotation Yrotation
                JOINT RightShoulder
                {
                    OFFSET -10.383700   0.000015   0.000000
                    CHANNELS 3 Zrotation Xrotation Yrotation
                    JOINT RightElbow
                    {
                        OFFSET -26.662100   0.001341   0.000385
                        CHANNELS 3 Zrotation Xrotation Yrotation
                        JOINT RightWrist
                        {
                            OFFSET -28.869000   0.000025  -0.000080
                            CHANNELS 3 Zrotation Xrotation Yrotation
                            JOINT RightFinger0
                            {
                                OFFSET  -2.044650  -2.323490   3.252850
                                CHANNELS 3 Zrotation Xrotation Yrotation
                                JOINT RightFinger01
                                {
                                    OFFSET  -3.088130   0.000000   0.000000
                                    CHANNELS 3 Zrotation Xrotation Yrotation
                                    JOINT RightFinger02
                                    {
                                        OFFSET  -2.639460   0.000000   0.000000
                                        CHANNELS 3 Zrotation Xrotation Yrotation
                                        End Site
                                        {
                                            OFFSET  -2.582190   0.000000   0.000000
                                        }
                                    }
                                }
                            }
                            JOINT RightFinger1
                            {
                                OFFSET  -8.364480   0.000000   3.252850
                                CHANNELS 3 Zrotation Xrotation Yrotation
                                JOINT RightFinger11
                                {
                                    OFFSET  -4.646930   0.000000   0.000000
                                    CHANNELS 3 Zrotation Xrotation Yrotation
                                    JOINT RightFinger12
                                    {
                                        OFFSET  -2.323470   0.000000   0.000000
                                        CHANNELS 3 Zrotation Xrotation Yrotation
                                        End Site
                                        {
                                            OFFSET  -2.273050   0.000000   0.000000
                                        }
                                    }
                                }
                            }
                            JOINT RightFinger2
                            {
                                OFFSET  -8.364480   0.000000   1.078090
                                CHANNELS 3 Zrotation Xrotation Yrotation
                                JOINT RightFinger21
                                {
                                    OFFSET  -5.111610   0.000000   0.000000
                                    CHANNELS 3 Zrotation Xrotation Yrotation
                                    JOINT RightFinger22
                                    {
                                        OFFSET  -2.788160   0.000000   0.000000
                                        CHANNELS 3 Zrotation Xrotation Yrotation
                                        End Site
                                        {
                                            OFFSET  -2.727660   0.000000   0.000000
                                        }
                                    }
                                }
                            }
                            JOINT RightFinger3
                            {
                                OFFSET  -7.899780   0.000000  -1.078090
                                CHANNELS 3 Zrotation Xrotation Yrotation
                                JOINT RightFinger31
                                {
                                    OFFSET  -4.646920   0.000000   0.000000
                                    CHANNELS 3 Zrotation Xrotation Yrotation
                                    JOINT RightFinger32
                                    {
                                        OFFSET  -2.323470   0.000000   0.000000
                                        CHANNELS 3 Zrotation Xrotation Yrotation
                                        End Site
                                        {
                                            OFFSET  -2.273050   0.000000   0.000000
                                        }
                                    }
                                }
                            }
                            JOINT RightFinger4
                            {
                                OFFSET  -7.435090   0.000000  -3.252850
                                CHANNELS 3 Zrotation Xrotation Yrotation
                                JOINT RightFinger41
                                {
                                    OFFSET  -3.717550   0.000000   0.000000
                                    CHANNELS 3 Zrotation Xrotation Yrotation
                                    JOINT RightFinger42
                                    {
                                        OFFSET  -1.858770   0.000000   0.000000
                                        CHANNELS 3 Zrotation Xrotation Yrotation
                                        End Site
                                        {
                                            OFFSET  -1.818440   0.000000   0.000000
                                        }
                                    }
                                }
                            }
                        }
                    }
                }
            }
        }
    }
    JOINT LeftHip
    {
        OFFSET   9.783010   0.000000   0.000000
        CHANNELS 3 Zrotation Xrotation Yrotation
        JOINT LeftKnee
        {
            OFFSET   0.000070 -41.789100   0.000028
            CHANNELS 3 Zrotation Xrotation Yrotation
            JOINT LeftAnkle
            {
                OFFSET   0.000087 -41.133200  -0.000100
                CHANNELS 3 Zrotation Xrotation Yrotation
                JOINT LeftToe
                {
                    OFFSET   0.000000  -6.358960  14.674500
                    CHANNELS 3 Zrotation Xrotation Yrotation
                    End Site
                    {
                        OFFSET   0.000000   0.000000   3.913200
                    }
                }
            }
        }
    }
    JOINT RightHip
    {
        OFFSET  -9.783020   0.000000   0.000000
        CHANNELS 3 Zrotation Xrotation Yrotation
        JOINT RightKnee
        {
            OFFSET   0.000044 -41.789100  -0.000870
            CHANNELS 3 Zrotation Xrotation Yrotation
            JOINT RightAnkle
            {
                OFFSET  -0.000090 -41.133200  -0.000245
                CHANNELS 3 Zrotation Xrotation Yrotation
                JOINT RightToe
                {
                    OFFSET   0.000000  -6.358960  14.674500
                    CHANNELS 3 Zrotation Xrotation Yrotation
                    End Site
                    {
                        OFFSET   0.000000   0.000000   3.913200
                    }
                }
            }
        }
    }
}
MOTION
Frames: 4
Frame Time:   0.016667
 -3.256450  89.872300   0.481024  -1.804380  -9.672010  -6.514940   0.812491   9.481520  -1.689360   1.954090  18.933400  -3.592730   5.157070  -3.413770   0.306067   8.558410  -6.755700  14.858600  -2.607560  -2.445200   5.047120 -67.091700  25.435200  -8.060150  -6.055470 -11.818800 -22.297500  14.432200   5.705080   6.106180  41.529300  33.421800 -71.460400 -24.942800  -0.004839  -0.000769  -7.471410  -0.003302   0.001137 -33.144000   7.170520 -10.821800 -27.674300  -0.005087  -0.003399 -19.372000  -0.003207  -0.001058 -29.261200   3.173210  -5.644050 -44.124800  -0.013311  -0.005861 -29.387100  -0.012000  -0.003891 -28.298600   3.078280  -5.696250 -35.621300  -0.008412  -0.002018 -23.723800  -0.005361  -0.002595 -33.826100   0.503474  -0.751329 -50.744100  -0.005451  -0.006028 -33.795600  -0.002859  -0.004525   6.849170  -2.409110   7.926980  58.664000   8.252350  24.260900  -8.202460 -17.125500  98.736000  -3.027860  -1.231610  15.150900 -51.447100  27.069800  43.729500 -17.991200  -0.001468  -0.000369 -13.995600  -0.003054   0.000447  88.995800   5.000640   0.092779  91.665900   0.001199   0.003297  68.749400   0.003000   0.001343  89.000000  -0.000697  -0.001687 106.428000   0.000892   0.002851  79.821100   0.001206  -0.003102  88.996700  -4.997540  -0.082155 102.454000   0.000762  -0.001727  76.840800  -0.000731  -0.001018  88.984700  -9.996530  -0.176313 110.000000  -0.009171  -0.004325  79.999900  -0.003540   0.002180   2.130870  11.128500   3.511110   0.348868   3.102970  16.627700  -6.826170  -5.460490   3.902710   0.000000   0.000000  -0.000000   3.156910   9.497180 -10.174400  -0.201534   2.460590  -2.741680 -10.245400  -0.092998   6.052150  -0.000000   0.000000  -0.000000
 -3.285420  89.802900   0.572758  -1.822730  -9.742790  -6.534030   0.822044   9.357330  -1.693340   1.968550  18.684500  -3.598090   5.078370  -2.384530   0.210791   8.382580  -4.723520  14.505200  -2.614720  -2.368120   5.104310 -67.307400  25.415000  -8.051080  -5.953550 -11.543200 -22.074200  14.459800   5.772160   6.067180  41.573500  33.363500 -71.361800 -24.855700  -0.007911  -0.000240  -7.427830  -0.003347   0.001191 -33.077200   7.196830 -10.887500 -27.625000  -0.009014  -0.003349 -19.337500  -0.006260  -0.001082 -29.251100   3.216150  -5.720830 -44.117700  -0.023041  -0.006014 -29.382300  -0.014961  -0.004117 -28.291600   3.119800  -5.773820 -35.601100  -0.019242  -0.002143 -23.710300  -0.012666  -0.002630 -33.821500   0.504461  -0.752971 -50.737200  -0.017943  -0.006529 -33.791000  -0.010812  -0.006718   6.796960  -2.347230   7.910280  58.790400   8.346970  24.393800  -8.328500 -16.944800  98.387000  -3.049970  -1.158340  14.994100 -51.413500  27.017400  43.655600 -17.869300  -0.001563  -0.000416 -13.934600  -0.003062   0.000476  88.995700   5.000650   0.092820  91.661400   0.001184   0.003263  68.746000   0.002961   0.001411  89.000000  -0.000739  -0.001595 106.463000   0.000869   0.002845  79.847500   0.001244  -0.003181  88.996700  -4.997530  -0.082111 102.441000   0.000769  -0.001665  76.830600  -0.000700  -0.001012  88.984700  -9.996470  -0.176318 110.000000  -0.009161  -0.004379  79.999900  -0.003483   0.002204   2.145020  11.206400   3.470150   0.329906   3.210810  16.660700  -6.833020  -5.553380   3.916870   0.000000   0.000000   0.000000   3.196010   9.583240 -10.190600  -0.198428   2.522730  -2.709170 -10.266800  -0.159924   6.040760  -0.000000   0.000000  -0.000000
 -3.307760  89.734900   0.663720  -1.841310  -9.819620  -6.570890   0.833565   9.230280  -1.684570   1.985240  18.430300  -3.577630   4.949210  -1.076630   0.093037   8.142570  -2.135950  14.042400  -2.605290  -2.261050   5.144560 -67.616100  25.217400  -8.003040  -5.798570 -11.177100 -21.878100  14.537200   5.767200   6.035020  41.597700  33.285000 -71.186900 -24.807900  -0.010671   0.004600  -7.403940  -0.004480   0.003019 -33.018500   7.214790 -10.937800 -27.581100  -0.038289  -0.003313 -19.306700  -0.026516  -0.001043 -29.275700   3.263820  -5.803780 -44.163600  -0.055839  -0.006201 -29.412900  -0.034188  -0.010394 -28.291700   3.163540  -5.856470 -35.652500  -0.061037  -0.008189 -23.744500  -0.038784  -0.012087 -33.864800   0.494780  -0.737348 -50.802200  -0.056003  -0.017872 -33.834300  -0.032657  -0.020886   6.740800  -2.275050   7.865540  58.926500   8.411730  24.522000  -8.490050 -16.732600  98.000100  -3.047090  -1.180060  14.845500 -51.356300  26.927600  43.529400 -17.818100  -0.001682  -0.000460 -13.909000  -0.003076   0.000498  88.995800   5.000670   0.092869  91.679800   0.001170   0.003245  68.759900   0.002927   0.001479  89.000000  -0.000785  -0.001492 106.501000   0.000849   0.002832  79.876100   0.001279  -0.003256  88.996700  -4.997520  -0.082060 102.445000   0.000774  -0.001607  76.834000  -0.000666  -0.001008  88.984700  -9.996410  -0.176308 110.000000  -0.009175  -0.004424  79.999900  -0.003417   0.002207   2.141450  11.283300   3.436390   0.319109   3.334030  16.696100  -6.830920  -5.657680   3.942990   0.000000   0.000000   0.000000   3.236900   9.688230 -10.161500  -0.203504   2.568300  -2.730620 -10.282800  -0.228666   6.046380   0.000000   0.000000  -0.000000
 -3.324790  89.674700   0.748553  -1.860730  -9.898340  -6.614530   0.845863   9.103490  -1.664560   2.001780  18.176800  -3.535270   4.774550   0.377140  -0.030981   7.849830   0.749148  13.502800  -2.580990  -2.141070   5.180990 -67.973400  24.900200  -7.940510  -5.629950 -10.779500 -21.762800  14.632600   5.730250   6.019490  41.614400  33.217000 -71.008600 -24.791500  -0.012888   0.014465  -7.395770  -0.006303   0.007358 -32.987600   7.222480 -10.961700 -27.557700  -0.075756  -0.003182 -19.290300  -0.052119  -0.000950 -29.342900   3.305930  -5.857410 -44.268200  -0.089731  -0.006313 -29.482600  -0.057532  -0.016447 -28.300800   3.198960  -5.916770 -35.779500  -0.103925  -0.014110 -23.829100  -0.066280  -0.021509 -33.968000   0.471780  -0.700586 -50.956700  -0.097438  -0.032780 -33.937200  -0.056276  -0.038899   6.688010  -2.195030   7.804730  59.057200   8.455890  24.627400  -8.645930 -16.511400  97.616000  -3.022310  -1.286160  14.704400 -51.318400  26.867600  43.445500 -17.786800  -0.001803  -0.000500 -13.893400  -0.003093   0.000522  88.995700   5.000690   0.092917  91.698300   0.001156   0.003228  68.773800   0.002892   0.001548  89.000000  -0.000833  -0.001389 106.540000   0.000832   0.002816  79.905400   0.001315  -0.003330  88.996700  -4.997510  -0.082010 102.450000   0.000781  -0.001549  76.837300  -0.000628  -0.001003  88.984700  -9.996340  -0.176294 110.000000  -0.009189  -0.004469  79.999900  -0.003350   0.002210   2.131070  11.356700   3.402600   0.310299   3.464410  16.734300  -6.822270  -5.768680   3.974820   0.000000   0.000000   0.000000   3.276890   9.800550 -10.132600  -0.212807   2.607850  -2.752070 -10.295800  -0.301372   6.064470   0.000000   0.000000   0.000000
